<?xml version="1.0" encoding="utf-8"?>
<!-- Generator: Adobe Illustrator 28.1.0, SVG Export Plug-In . SVG Version: 6.00 Build 0)  -->
<svg version="1.1" id="Layer_1" xmlns="http://www.w3.org/2000/svg" xmlns:xlink="http://www.w3.org/1999/xlink" x="0px" y="0px"
	 viewBox="0 0 413.6 82.4" style="enable-background:new 0 0 413.6 82.4;" xml:space="preserve">
<style type="text/css">
	.st0{fill-rule:evenodd;clip-rule:evenodd;fill:#FFA200;}
	.st1{fill-rule:evenodd;clip-rule:evenodd;fill:#006FC2;}
	.st2{fill-rule:evenodd;clip-rule:evenodd;fill:#FFCA76;}
	.st3{fill:#006FC2;}
	.st4{fill:#FFA200;}
	.st5{fill:#999999;}
</style>
<g>
	<polygon class="st0" points="406.8,5.2 295.7,5.2 315,20.4 326.8,29.7 350.6,48.5 406.8,5.2 	"/>
	<path class="st1" d="M406.8,74.4V11.1L366.7,42L406.8,74.4L406.8,74.4z M363.1,44.8l-11.9,9.2l-11.9-9.1l-40.2,32.4h104.1
		L363.1,44.8L363.1,44.8z M335.8,42.1l-9.3-7.4l-14.8,11.6l0-22.9l-16-12.2v63.2L335.8,42.1L335.8,42.1z"/>
	<polygon class="st2" points="315,20.4 315,39.2 326.8,29.7 398.3,6.7 315,20.4 	"/>
</g>
<g>
	<g>
		<path class="st3" d="M21.4,46.8c1.4,0,2.5-0.1,3.4-0.3c0.9-0.2,1.6-0.5,2.2-0.9s0.9-0.9,1.1-1.4c0.2-0.5,0.3-1.2,0.3-1.8
			c0-1.4-0.7-2.6-2-3.6c-1.3-0.9-3.7-2-7-3.1c-1.4-0.5-2.9-1.1-4.3-1.7c-1.4-0.7-2.7-1.5-3.9-2.5c-1.1-1-2.1-2.2-2.8-3.6
			c-0.7-1.4-1.1-3.1-1.1-5.1c0-2,0.4-3.8,1.1-5.5c0.8-1.6,1.8-3,3.2-4.1c1.4-1.1,3.1-2,5.1-2.6c2-0.6,4.2-0.9,6.7-0.9
			c2.9,0,5.5,0.3,7.6,0.9c2.1,0.6,3.9,1.3,5.3,2.1l-2.8,7.8c-1.2-0.6-2.6-1.2-4.1-1.7c-1.5-0.5-3.3-0.7-5.4-0.7
			c-2.4,0-4.1,0.3-5.1,1s-1.5,1.7-1.5,3c0,0.8,0.2,1.5,0.6,2c0.4,0.5,0.9,1,1.6,1.5c0.7,0.4,1.5,0.8,2.4,1.2c0.9,0.4,1.9,0.7,3,1.1
			c2.3,0.8,4.3,1.7,5.9,2.5c1.7,0.8,3.1,1.8,4.2,2.9c1.1,1.1,1.9,2.4,2.5,3.9c0.5,1.5,0.8,3.3,0.8,5.4c0,4.1-1.4,7.3-4.3,9.5
			c-2.9,2.3-7.2,3.4-12.9,3.4c-1.9,0-3.7-0.1-5.2-0.3s-2.9-0.5-4.1-0.9c-1.2-0.3-2.2-0.7-3.1-1.1c-0.9-0.4-1.6-0.7-2.2-1.1L9.6,44
			c1.3,0.7,2.9,1.4,4.8,1.9C16.3,46.5,18.7,46.8,21.4,46.8z"/>
		<path class="st3" d="M44.1,37.9c0-2.9,0.5-5.5,1.4-7.7c0.9-2.2,2.1-4.1,3.6-5.5c1.5-1.5,3.2-2.6,5.1-3.3c1.9-0.8,3.9-1.1,5.9-1.1
			c4.7,0,8.4,1.4,11.2,4.3c2.7,2.9,4.1,7.1,4.1,12.7c0,0.5,0,1.1-0.1,1.8c0,0.7-0.1,1.2-0.1,1.7H53.7c0.2,1.9,1.1,3.5,2.7,4.6
			c1.6,1.1,3.7,1.7,6.4,1.7c1.7,0,3.4-0.2,5.1-0.5c1.7-0.3,3-0.7,4.1-1.2l1.3,7.6c-0.5,0.3-1.2,0.5-2,0.8c-0.8,0.3-1.8,0.5-2.8,0.7
			c-1,0.2-2.1,0.3-3.3,0.5c-1.2,0.1-2.4,0.2-3.5,0.2c-3,0-5.6-0.4-7.8-1.3c-2.2-0.9-4-2.1-5.5-3.6c-1.5-1.5-2.5-3.4-3.2-5.5
			S44.1,40.4,44.1,37.9z M66.2,34.3c0-0.8-0.2-1.6-0.4-2.3c-0.2-0.8-0.6-1.4-1.1-2c-0.5-0.6-1.1-1.1-1.8-1.5
			c-0.7-0.4-1.7-0.6-2.7-0.6c-1.1,0-2,0.2-2.7,0.5c-0.8,0.4-1.4,0.8-1.9,1.4c-0.5,0.6-0.9,1.3-1.2,2.1c-0.3,0.8-0.5,1.6-0.6,2.4
			H66.2z"/>
		<path class="st3" d="M82.5,22.2c1.6-0.5,3.7-0.9,6.2-1.3c2.5-0.4,5.2-0.6,8-0.6c2.8,0,5.2,0.4,7,1.1c1.9,0.7,3.4,1.8,4.5,3.1
			c1.1,1.3,1.9,2.9,2.3,4.8c0.5,1.9,0.7,3.9,0.7,6.2v18.8h-9.4V36.6c0-3-0.4-5.2-1.2-6.4c-0.8-1.3-2.3-1.9-4.5-1.9
			c-0.7,0-1.4,0-2.1,0.1c-0.8,0.1-1.4,0.1-2,0.2v25.6h-9.4V22.2z"/>
		<path class="st3" d="M149.1,53.2c-0.8,0.3-1.8,0.5-2.9,0.7c-1.1,0.2-2.2,0.4-3.4,0.6c-1.2,0.2-2.4,0.3-3.7,0.4
			c-1.2,0.1-2.4,0.2-3.6,0.2c-2.7,0-5.2-0.4-7.3-1.2c-2.1-0.8-4-1.9-5.4-3.4c-1.5-1.5-2.6-3.3-3.4-5.4c-0.8-2.1-1.2-4.5-1.2-7.2
			c0-2.7,0.3-5.1,1-7.3c0.7-2.2,1.6-4,2.9-5.5c1.3-1.5,2.8-2.7,4.6-3.5c1.8-0.8,3.9-1.2,6.3-1.2c1.3,0,2.5,0.1,3.5,0.4
			c1,0.3,2.1,0.6,3.1,1.1v-15l9.4-1.5V53.2z M127.8,37.4c0,2.9,0.7,5.2,2,7c1.3,1.8,3.2,2.7,5.8,2.7c0.8,0,1.6,0,2.3-0.1
			c0.7-0.1,1.3-0.1,1.8-0.2V29.6c-0.6-0.4-1.4-0.7-2.3-0.9c-0.9-0.3-1.9-0.4-2.9-0.4C130,28.3,127.8,31.3,127.8,37.4z"/>
		<path class="st4" d="M170.2,10.5c0.8,1.4,1.6,3.1,2.6,5.1c1,2,2,4.3,3.1,6.6c1.1,2.4,2.1,4.8,3.2,7.3c1.1,2.5,2,4.8,3,7
			c0.9-2.2,1.9-4.5,3-7s2.1-4.9,3.2-7.3c1.1-2.4,2.1-4.6,3.1-6.6c1-2,1.9-3.8,2.6-5.1h9c0.4,2.9,0.8,6.2,1.2,9.8
			c0.4,3.6,0.7,7.3,0.9,11.2c0.3,3.9,0.5,7.8,0.8,11.7c0.2,3.9,0.4,7.6,0.6,11.1h-9.6c-0.1-4.3-0.3-8.9-0.5-13.9s-0.5-10.1-0.9-15.2
			c-0.8,1.8-1.6,3.7-2.5,5.9c-0.9,2.1-1.8,4.3-2.8,6.4c-0.9,2.1-1.8,4.2-2.6,6.2c-0.8,2-1.6,3.6-2.2,5h-6.9c-0.6-1.4-1.3-3.1-2.2-5
			c-0.8-2-1.7-4-2.6-6.2c-0.9-2.1-1.8-4.3-2.8-6.4c-0.9-2.1-1.8-4.1-2.5-5.9c-0.4,5.1-0.7,10.2-0.9,15.2s-0.4,9.6-0.5,13.9h-9.6
			c0.2-3.5,0.4-7.1,0.6-11.1c0.2-3.9,0.5-7.8,0.8-11.7c0.3-3.9,0.6-7.6,0.9-11.2c0.4-3.6,0.7-6.9,1.2-9.8H170.2z"/>
		<path class="st4" d="M226.5,20.2c2.8,0,5.1,0.3,6.9,0.9c1.9,0.6,3.3,1.5,4.5,2.7c1.1,1.2,1.9,2.6,2.4,4.3c0.5,1.7,0.7,3.6,0.7,5.6
			v19.6c-1.3,0.3-3.2,0.6-5.6,1c-2.4,0.4-5.3,0.6-8.7,0.6c-2.1,0-4.1-0.2-5.8-0.6c-1.7-0.4-3.3-1-4.5-1.9c-1.3-0.9-2.2-2-2.9-3.4
			c-0.7-1.4-1-3.1-1-5.1c0-1.9,0.4-3.6,1.2-4.9c0.8-1.3,1.8-2.4,3.1-3.2c1.3-0.8,2.8-1.4,4.5-1.7c1.7-0.4,3.4-0.5,5.2-0.5
			c1.2,0,2.3,0.1,3.3,0.2c0.9,0.1,1.7,0.2,2.3,0.4v-0.9c0-1.6-0.5-2.9-1.5-3.9c-1-1-2.7-1.5-5.1-1.5c-1.6,0-3.2,0.1-4.7,0.3
			c-1.6,0.2-2.9,0.6-4,1l-1.2-7.6c0.5-0.2,1.2-0.3,2.1-0.5c0.8-0.2,1.7-0.4,2.7-0.5c1-0.1,2-0.3,3.1-0.4
			C224.3,20.2,225.4,20.2,226.5,20.2z M227.3,47.7c0.9,0,1.8,0,2.7-0.1c0.8,0,1.5-0.1,2-0.2v-7.1c-0.4-0.1-0.9-0.2-1.7-0.3
			c-0.8-0.1-1.5-0.1-2.1-0.1c-0.9,0-1.7,0.1-2.5,0.2c-0.8,0.1-1.5,0.3-2.1,0.6c-0.6,0.3-1.1,0.7-1.4,1.2c-0.3,0.5-0.5,1.1-0.5,1.9
			c0,1.5,0.5,2.5,1.5,3.1C224.2,47.4,225.5,47.7,227.3,47.7z"/>
		<path class="st4" d="M259.8,11.4c0,1.7-0.6,3.1-1.7,4.1c-1.1,1-2.4,1.5-3.9,1.5c-1.5,0-2.8-0.5-3.9-1.5c-1.1-1-1.7-2.3-1.7-4.1
			s0.6-3.1,1.7-4.1c1.1-1,2.4-1.5,3.9-1.5c1.5,0,2.8,0.5,3.9,1.5C259.3,8.4,259.8,9.7,259.8,11.4z M258.9,54.3h-9.4V21h9.4V54.3z"/>
		<path class="st4" d="M281,54.9c-2.7,0-5-0.3-6.7-0.9c-1.7-0.5-3.1-1.3-4-2.3c-1-1-1.7-2.2-2-3.6c-0.4-1.4-0.5-3-0.5-4.8V6.8
			l9.4-1.5v36.2c0,0.8,0.1,1.6,0.2,2.3s0.4,1.2,0.7,1.7c0.4,0.5,0.9,0.8,1.5,1.1c0.7,0.3,1.6,0.5,2.7,0.6L281,54.9z"/>
	</g>
	<g>
		<path class="st5" d="M14.9,67.7h5.8v1H16v2.9h4.4v1H16v3.3h4.9v1h-6V67.7z"/>
		<path class="st5" d="M25.2,67.7h5.7v1h-4.6v3h4.3v1h-4.3v4.1h-1.1V67.7z"/>
		<path class="st5" d="M35,67.7h5.7v1h-4.6v3h4.3v1h-4.3v4.1H35V67.7z"/>
		<path class="st5" d="M49.1,77.2c-0.7,0-1.3-0.1-1.9-0.4c-0.6-0.2-1.1-0.6-1.5-1c-0.4-0.4-0.8-0.9-1-1.5c-0.2-0.6-0.4-1.2-0.4-1.9
			c0-0.7,0.1-1.3,0.4-1.9c0.2-0.6,0.6-1.1,1-1.5c0.4-0.4,0.9-0.8,1.5-1c0.6-0.2,1.2-0.4,1.9-0.4s1.3,0.1,1.9,0.4
			c0.6,0.2,1.1,0.6,1.5,1c0.4,0.4,0.8,0.9,1,1.5c0.2,0.6,0.4,1.2,0.4,1.9c0,0.7-0.1,1.3-0.4,1.9c-0.2,0.6-0.6,1.1-1,1.5
			c-0.4,0.4-0.9,0.8-1.5,1C50.5,77,49.8,77.2,49.1,77.2z M49.1,76.1c0.5,0,1-0.1,1.5-0.3c0.4-0.2,0.8-0.5,1.2-0.8
			c0.3-0.3,0.6-0.7,0.7-1.2c0.2-0.5,0.3-1,0.3-1.5c0-0.5-0.1-1-0.3-1.5c-0.2-0.5-0.4-0.9-0.7-1.2c-0.3-0.3-0.7-0.6-1.2-0.8
			c-0.4-0.2-0.9-0.3-1.5-0.3c-0.5,0-1,0.1-1.5,0.3c-0.4,0.2-0.8,0.5-1.2,0.8c-0.3,0.3-0.6,0.7-0.7,1.2c-0.2,0.5-0.3,1-0.3,1.5
			c0,0.5,0.1,1,0.3,1.5c0.2,0.5,0.4,0.9,0.7,1.2c0.3,0.3,0.7,0.6,1.2,0.8C48.1,76,48.6,76.1,49.1,76.1z"/>
		<path class="st5" d="M58.3,67.7h2.4c0.4,0,0.9,0,1.3,0.1c0.4,0.1,0.8,0.2,1.2,0.3c0.3,0.2,0.6,0.4,0.8,0.8s0.3,0.8,0.3,1.4
			c0,0.7-0.2,1.2-0.6,1.6c-0.4,0.4-1,0.7-1.7,0.8l2.6,4.2h-1.3l-2.5-4.1h-1.4v4.1h-1.1V67.7z M59.4,71.8h1c0.3,0,0.6,0,0.9,0
			c0.3,0,0.6-0.1,0.9-0.2c0.3-0.1,0.5-0.2,0.7-0.4c0.2-0.2,0.3-0.5,0.3-0.9c0-0.3-0.1-0.6-0.2-0.8s-0.3-0.4-0.5-0.5
			c-0.2-0.1-0.5-0.2-0.7-0.2s-0.5-0.1-0.8-0.1h-1.5V71.8z"/>
		<path class="st5" d="M74.8,68.7h-3v8.2h-1.1v-8.2h-3v-1h7.2V68.7z"/>
		<path class="st5" d="M78.6,67.7h1.1v8.2h4.2v1h-5.3V67.7z"/>
		<path class="st5" d="M87.7,67.7h5.8v1h-4.7v2.9h4.4v1h-4.4v3.3h4.9v1h-6V67.7z"/>
		<path class="st5" d="M102.4,69.4c-0.2-0.3-0.4-0.5-0.7-0.6c-0.3-0.1-0.6-0.2-0.9-0.2c-0.2,0-0.5,0-0.7,0.1
			c-0.2,0.1-0.4,0.2-0.6,0.3c-0.2,0.1-0.3,0.3-0.5,0.5c-0.1,0.2-0.2,0.4-0.2,0.7c0,0.2,0,0.4,0.1,0.6c0.1,0.2,0.2,0.3,0.3,0.4
			c0.1,0.1,0.3,0.3,0.6,0.4c0.3,0.1,0.6,0.2,0.9,0.3c0.4,0.1,0.7,0.2,1,0.4c0.3,0.1,0.6,0.3,0.9,0.5c0.3,0.2,0.5,0.4,0.6,0.7
			c0.2,0.3,0.2,0.7,0.2,1.1c0,0.5-0.1,0.9-0.3,1.2c-0.2,0.3-0.4,0.6-0.7,0.8c-0.3,0.2-0.6,0.4-1,0.5c-0.4,0.1-0.8,0.2-1.2,0.2
			c-0.3,0-0.5,0-0.8-0.1c-0.3,0-0.5-0.1-0.8-0.2c-0.2-0.1-0.5-0.2-0.7-0.4c-0.2-0.2-0.4-0.4-0.6-0.6l0.9-0.8
			c0.2,0.3,0.5,0.6,0.8,0.8c0.4,0.2,0.7,0.3,1.1,0.3c0.2,0,0.5,0,0.7-0.1c0.2-0.1,0.5-0.2,0.6-0.3c0.2-0.1,0.3-0.3,0.5-0.5
			c0.1-0.2,0.2-0.4,0.2-0.7c0-0.3,0-0.5-0.1-0.7c-0.1-0.2-0.2-0.3-0.4-0.5c-0.2-0.1-0.5-0.2-0.8-0.4c-0.3-0.1-0.7-0.2-1.1-0.4
			c-0.3-0.1-0.6-0.2-0.9-0.4c-0.3-0.1-0.5-0.3-0.7-0.5c-0.2-0.2-0.4-0.4-0.5-0.7c-0.1-0.3-0.2-0.6-0.2-1c0-0.4,0.1-0.8,0.3-1.2
			c0.2-0.3,0.4-0.6,0.7-0.8c0.3-0.2,0.6-0.4,1-0.5c0.4-0.1,0.8-0.2,1.2-0.2c0.5,0,1,0.1,1.4,0.2c0.4,0.2,0.8,0.4,1.2,0.8L102.4,69.4
			z"/>
		<path class="st5" d="M112.2,69.4c-0.2-0.3-0.4-0.5-0.7-0.6c-0.3-0.1-0.6-0.2-0.9-0.2c-0.2,0-0.5,0-0.7,0.1
			c-0.2,0.1-0.4,0.2-0.6,0.3c-0.2,0.1-0.3,0.3-0.5,0.5c-0.1,0.2-0.2,0.4-0.2,0.7c0,0.2,0,0.4,0.1,0.6c0.1,0.2,0.2,0.3,0.3,0.4
			c0.1,0.1,0.3,0.3,0.6,0.4c0.3,0.1,0.6,0.2,0.9,0.3c0.4,0.1,0.7,0.2,1,0.4c0.3,0.1,0.6,0.3,0.9,0.5c0.3,0.2,0.5,0.4,0.6,0.7
			c0.2,0.3,0.2,0.7,0.2,1.1c0,0.5-0.1,0.9-0.3,1.2c-0.2,0.3-0.4,0.6-0.7,0.8c-0.3,0.2-0.6,0.4-1,0.5c-0.4,0.1-0.8,0.2-1.2,0.2
			c-0.3,0-0.5,0-0.8-0.1c-0.3,0-0.5-0.1-0.8-0.2c-0.2-0.1-0.5-0.2-0.7-0.4c-0.2-0.2-0.4-0.4-0.6-0.6l0.9-0.8
			c0.2,0.3,0.5,0.6,0.8,0.8c0.4,0.2,0.7,0.3,1.1,0.3c0.2,0,0.5,0,0.7-0.1c0.2-0.1,0.5-0.2,0.6-0.3c0.2-0.1,0.3-0.3,0.5-0.5
			c0.1-0.2,0.2-0.4,0.2-0.7c0-0.3,0-0.5-0.1-0.7c-0.1-0.2-0.2-0.3-0.4-0.5c-0.2-0.1-0.5-0.2-0.8-0.4c-0.3-0.1-0.7-0.2-1.1-0.4
			c-0.3-0.1-0.6-0.2-0.9-0.4c-0.3-0.1-0.5-0.3-0.7-0.5c-0.2-0.2-0.4-0.4-0.5-0.7c-0.1-0.3-0.2-0.6-0.2-1c0-0.4,0.1-0.8,0.3-1.2
			c0.2-0.3,0.4-0.6,0.7-0.8c0.3-0.2,0.6-0.4,1-0.5c0.4-0.1,0.8-0.2,1.2-0.2c0.5,0,1,0.1,1.4,0.2c0.4,0.2,0.8,0.4,1.2,0.8L112.2,69.4
			z"/>
		<path class="st5" d="M123.9,67.7h5.8v1H125v2.9h4.4v1H125v3.3h4.9v1h-6V67.7z"/>
		<path class="st5" d="M134.2,67.7h1.6l3.1,7.2h0l3.1-7.2h1.6v9.2h-1.1v-7.7h0l-3.3,7.7h-0.7l-3.3-7.7h0v7.7h-1.1V67.7z"/>
		<path class="st5" d="M151.5,67.7h1l3.9,9.2h-1.3l-0.9-2.3h-4.6l-0.9,2.3h-1.2L151.5,67.7z M152,69.1L152,69.1l-1.9,4.5h3.8
			L152,69.1z"/>
		<path class="st5" d="M160.3,67.7h1.1v9.2h-1.1V67.7z"/>
		<path class="st5" d="M166.3,67.7h1.1v8.2h4.2v1h-5.3V67.7z"/>
		<path class="st5" d="M181.6,67.7h1.6l3.1,7.2h0l3.1-7.2h1.6v9.2H190v-7.7h0l-3.3,7.7H186l-3.3-7.7h0v7.7h-1.1V67.7z"/>
		<path class="st5" d="M198.9,67.7h1l3.9,9.2h-1.3l-0.9-2.3h-4.6l-0.9,2.3h-1.2L198.9,67.7z M199.4,69.1L199.4,69.1l-1.9,4.5h3.8
			L199.4,69.1z"/>
		<path class="st5" d="M207.7,67.7h2.4c0.4,0,0.9,0,1.3,0.1c0.4,0.1,0.8,0.2,1.2,0.3c0.3,0.2,0.6,0.4,0.8,0.8
			c0.2,0.3,0.3,0.8,0.3,1.4c0,0.7-0.2,1.2-0.6,1.6c-0.4,0.4-1,0.7-1.7,0.8l2.6,4.2h-1.3l-2.5-4.1h-1.4v4.1h-1.1V67.7z M208.8,71.8h1
			c0.3,0,0.6,0,0.9,0c0.3,0,0.6-0.1,0.9-0.2c0.3-0.1,0.5-0.2,0.7-0.4c0.2-0.2,0.3-0.5,0.3-0.9c0-0.3-0.1-0.6-0.2-0.8
			c-0.1-0.2-0.3-0.4-0.5-0.5c-0.2-0.1-0.5-0.2-0.7-0.2c-0.3,0-0.5-0.1-0.8-0.1h-1.5V71.8z"/>
		<path class="st5" d="M218.2,67.7h1.1v4h0.2l4.2-4h1.6l-4.5,4.2l4.8,5h-1.6l-4.4-4.7h-0.2v4.7h-1.1V67.7z"/>
		<path class="st5" d="M229,67.7h5.8v1h-4.7v2.9h4.4v1h-4.4v3.3h4.9v1h-6V67.7z"/>
		<path class="st5" d="M245.5,68.7h-3v8.2h-1.1v-8.2h-3v-1h7.2V68.7z"/>
		<path class="st5" d="M249.4,67.7h1.1v9.2h-1.1V67.7z"/>
		<path class="st5" d="M255.3,67.7h1.4l5.3,7.6h0v-7.6h1.1v9.2h-1.4l-5.3-7.6h0v7.6h-1.1V67.7z"/>
		<path class="st5" d="M275.9,76.3c-0.5,0.3-1.1,0.5-1.7,0.6c-0.6,0.1-1.2,0.2-1.8,0.2c-0.7,0-1.4-0.1-2-0.4c-0.6-0.2-1.1-0.6-1.6-1
			c-0.4-0.4-0.8-0.9-1-1.5c-0.2-0.6-0.4-1.2-0.4-2c0-0.7,0.1-1.4,0.4-2c0.3-0.6,0.6-1.1,1.1-1.5c0.5-0.4,1-0.7,1.6-1
			c0.6-0.2,1.2-0.4,1.9-0.4c0.6,0,1.2,0.1,1.7,0.3c0.6,0.2,1.1,0.5,1.5,0.9l-0.8,0.9c-0.3-0.3-0.7-0.6-1.1-0.8
			c-0.4-0.2-0.9-0.3-1.4-0.3c-0.5,0-1,0.1-1.5,0.3c-0.5,0.2-0.8,0.5-1.2,0.8c-0.3,0.3-0.6,0.7-0.8,1.2s-0.3,1-0.3,1.5
			c0,0.5,0.1,1.1,0.3,1.5s0.4,0.9,0.8,1.2c0.3,0.3,0.7,0.6,1.2,0.8c0.5,0.2,1,0.3,1.5,0.3c0.4,0,0.8,0,1.2-0.1
			c0.4-0.1,0.8-0.2,1.1-0.4v-2.8h-2.1v-1h3.2V76.3z"/>
	</g>
</g>
</svg>
